<svg width="135" height="126" viewBox="0 0 135 126" fill="none" xmlns="http://www.w3.org/2000/svg">
<path d="M101.202 77.8176V164.79H132.706V109.322C132.706 91.927 118.597 77.8176 101.202 77.8176Z" fill="#005C89"/>
<path d="M32.4857 77.8176V164.79H0.981659V109.322C0.981659 91.927 15.0911 77.8176 32.4857 77.8176Z" fill="#005C89"/>
<path d="M96.5707 149.496H38.948C19.8302 149.496 4.32057 133.986 4.32057 114.868C4.32057 95.7506 19.8302 80.2409 38.948 80.2409H96.5707C115.689 80.2409 131.198 95.7506 131.198 114.868C131.198 133.986 115.689 149.496 96.5707 149.496Z" fill="#0980B7"/>
<path d="M96.7861 126.77H39.1635C23.8692 126.77 10.9445 116.861 6.31314 103.128C5.02067 106.79 4.26672 110.722 4.26672 114.815C4.26672 133.932 19.7764 149.442 38.8942 149.442H96.5169C115.635 149.442 131.144 133.932 131.144 114.815C131.144 110.991 130.498 107.275 129.367 103.829C124.574 117.184 111.811 126.77 96.7861 126.77Z" fill="#0B76A9"/>
<path d="M93.2318 33.8197C97.0685 33.8197 100.179 30.7094 100.179 26.8726C100.179 23.0359 97.0685 19.9256 93.2318 19.9256C89.3951 19.9256 86.2848 23.0359 86.2848 26.8726C86.2848 30.7094 89.3951 33.8197 93.2318 33.8197Z" fill="#EE927E"/>
<path d="M42.2869 33.8197C46.1236 33.8197 49.2339 30.7094 49.2339 26.8726C49.2339 23.0359 46.1236 19.9256 42.2869 19.9256C38.4502 19.9256 35.3399 23.0359 35.3399 26.8726C35.3399 30.7094 38.4502 33.8197 42.2869 33.8197Z" fill="#EE927E"/>
<path d="M47.6184 26.3879C52.6151 26.3879 56.6657 22.3373 56.6657 17.3406C56.6657 12.3439 52.6151 8.29333 47.6184 8.29333C42.6217 8.29333 38.5711 12.3439 38.5711 17.3406C38.5711 22.3373 42.6217 26.3879 47.6184 26.3879Z" fill="#ACE0F3"/>
<path d="M87.9004 26.3879C92.8971 26.3879 96.9477 22.3373 96.9477 17.3406C96.9477 12.3439 92.8971 8.29333 87.9004 8.29333C82.9037 8.29333 78.8531 12.3439 78.8531 17.3406C78.8531 22.3373 82.9037 26.3879 87.9004 26.3879Z" fill="#ACE0F3"/>
<path d="M92.9626 26.1187V25.1493C92.9626 11.363 81.5996 0 67.7594 0C53.9191 0 42.5562 11.363 42.5562 25.2032V26.1725C35.9861 32.6349 31.8933 41.6822 31.8933 51.645V81.0487H103.679V51.645C103.625 41.6822 99.5326 32.6349 92.9626 26.1187Z" fill="#F6C09C"/>
<path d="M76.322 19.8718H71.7445C70.3443 19.8718 69.2134 18.7408 69.2134 17.3407C69.2134 15.9405 70.3443 14.8096 71.7445 14.8096H76.322C77.7221 14.8096 78.8531 15.9405 78.8531 17.3407C78.7992 18.7408 77.6683 19.8718 76.322 19.8718Z" fill="#EE927E"/>
<path d="M74.0063 27.3034C72.9831 27.3034 72.1753 26.4956 72.1753 25.4724V22.6721C72.1753 21.6489 72.9831 20.8411 74.0063 20.8411C75.0295 20.8411 75.8373 21.6489 75.8373 22.6721V25.4724C75.8373 26.4956 75.0295 27.3034 74.0063 27.3034Z" fill="#002334"/>
<path d="M76.322 16.5328H71.7445C70.3443 16.5328 69.2134 15.4019 69.2134 14.0017C69.2134 12.6016 70.3443 11.4706 71.7445 11.4706H76.322C77.7221 11.4706 78.8531 12.6016 78.8531 14.0017C78.7992 15.4019 77.6683 16.5328 76.322 16.5328Z" fill="#ACE0F3"/>
<path d="M63.8281 19.8718H59.2506C57.8504 19.8718 56.7195 18.7408 56.7195 17.3407C56.7195 15.9405 57.8504 14.8096 59.2506 14.8096H63.8281C65.2283 14.8096 66.3592 15.9405 66.3592 17.3407C66.3053 18.7408 65.1744 19.8718 63.8281 19.8718Z" fill="#EE927E"/>
<path d="M61.5124 27.3034C60.4892 27.3034 59.6814 26.4956 59.6814 25.4724V22.6721C59.6814 21.6489 60.4892 20.8411 61.5124 20.8411C62.5356 20.8411 63.3434 21.6489 63.3434 22.6721V25.4724C63.3434 26.4956 62.5356 27.3034 61.5124 27.3034Z" fill="#002334"/>
<path d="M63.8281 16.5328H59.2506C57.8504 16.5328 56.7195 15.4019 56.7195 14.0017C56.7195 12.6016 57.8504 11.4706 59.2506 11.4706H63.8281C65.2283 11.4706 66.3592 12.6016 66.3592 14.0017C66.3053 15.4019 65.1744 16.5328 63.8281 16.5328Z" fill="#ACE0F3"/>
<path d="M67.7594 56.5456C76.9144 56.5456 84.3461 49.1139 84.3461 39.9589H51.1726C51.1726 49.1139 58.6044 56.5456 67.7594 56.5456Z" fill="white"/>
<path d="M81.1688 29.6191H68.2979H67.2208H54.35C48.48 29.6191 43.7409 34.3582 43.7409 40.2282V43.5132H62.2125C64.6897 43.5132 66.8439 42.0053 67.8132 39.9051C68.7826 42.0592 70.8828 43.5132 73.4139 43.5132H91.8855V40.2282C91.7778 34.4121 87.0387 29.6191 81.1688 29.6191Z" fill="#ACE0F3"/>
<path d="M103.679 71.3013H31.8933V81.0487H103.679V71.3013Z" fill="#00A8C7"/>
<path d="M103.679 66.2391H31.8933V71.3552H103.679V66.2391Z" fill="#EE927E"/>
<path d="M68.9441 71.3013H66.6284V81.0487H68.9441V71.3013Z" fill="#086794"/>
<path d="M62.2663 78.3022C63.4263 78.3022 64.3666 77.3619 64.3666 76.2019C64.3666 75.042 63.4263 74.1017 62.2663 74.1017C61.1064 74.1017 60.1661 75.042 60.1661 76.2019C60.1661 77.3619 61.1064 78.3022 62.2663 78.3022Z" fill="white"/>
<path d="M68.8903 81.1025H66.5208V142.495H68.8903V81.1025Z" fill="#0A6E9E"/>
<path d="M63.5589 92.4656C63.5589 93.2734 62.9126 93.9196 62.1048 93.9196C61.2971 93.9196 60.6508 93.2734 60.6508 92.4656C60.6508 91.6578 61.2971 91.0115 62.1048 91.0115C62.9126 91.0115 63.5589 91.7116 63.5589 92.4656Z" fill="white"/>
<path d="M63.5589 105.283C63.5589 106.09 62.9126 106.737 62.1048 106.737C61.2971 106.737 60.6508 106.09 60.6508 105.283C60.6508 104.475 61.2971 103.829 62.1048 103.829C62.9126 103.829 63.5589 104.475 63.5589 105.283Z" fill="white"/>
<path d="M63.5589 118.1C63.5589 118.907 62.9126 119.554 62.1048 119.554C61.2971 119.554 60.6508 118.907 60.6508 118.1C60.6508 117.292 61.2971 116.646 62.1048 116.646C62.9126 116.646 63.5589 117.292 63.5589 118.1Z" fill="white"/>
</svg>
